<svg width="193" height="53" viewBox="0 0 193 53" fill="none" xmlns="http://www.w3.org/2000/svg">
<mask id="mask0_258_468" style="mask-type:luminance" maskUnits="userSpaceOnUse" x="92" y="0" width="75" height="45">
<path d="M166.279 0H92V45H166.279V0Z" fill="white"/>
</mask>
<g mask="url(#mask0_258_468)">
<mask id="mask1_258_468" style="mask-type:luminance" maskUnits="userSpaceOnUse" x="92" y="1" width="191" height="43">
<path d="M282.572 1.44177H92V43.5585H282.572V1.44177Z" fill="white"/>
</mask>
<g mask="url(#mask1_258_468)">
<path d="M158.179 1.64775H146.474L132.126 43.2153H143.865L158.35 1.5791L158.179 1.64775ZM123.133 22.483C123.133 16.7164 118.465 12.0825 112.732 12.0825C107 12.0825 102.332 16.7507 102.332 22.483C102.332 28.2153 107 32.8834 112.732 32.8834C118.465 32.8834 123.133 28.2153 123.133 22.483ZM112.664 43.3182C101.165 43.3182 91.8628 34.0162 91.8628 22.5173C91.8628 11.0185 101.302 1.61343 112.801 1.61343C124.3 1.61343 133.602 10.9155 133.602 22.4143C133.602 33.9132 124.3 43.2153 112.801 43.2153" fill="white"/>
</g>
</g>
<mask id="path-4-outside-1_258_468" maskUnits="userSpaceOnUse" x="2" y="12" width="85" height="32" fill="black">
<rect fill="white" x="2" y="12" width="85" height="32"/>
<path d="M27.2 42H22.2L8.2 20.52V42H3.4V13.64H9.52L22.4 33.76V13.64H27.2V42ZM37.1859 27.8C37.1859 34.64 41.9059 38.04 46.6659 38.04C51.4659 38.04 56.1859 34.64 56.1859 27.8C56.1859 20.96 51.4659 17.56 46.6659 17.56C41.9059 17.56 37.1859 20.96 37.1859 27.8ZM32.2659 27.8C32.2659 18.52 39.2259 13.04 46.6659 13.04C54.1059 13.04 61.1059 18.52 61.1059 27.8C61.1059 37.12 54.1059 42.6 46.6659 42.6C39.2259 42.6 32.2659 37.12 32.2659 27.8ZM85.635 18.16H76.395V42H71.595V18.16H62.395V13.64H85.635V18.16Z"/>
</mask>
<path d="M27.2 42H22.2L8.2 20.52V42H3.4V13.64H9.52L22.4 33.76V13.64H27.2V42ZM37.1859 27.8C37.1859 34.64 41.9059 38.04 46.6659 38.04C51.4659 38.04 56.1859 34.64 56.1859 27.8C56.1859 20.96 51.4659 17.56 46.6659 17.56C41.9059 17.56 37.1859 20.96 37.1859 27.8ZM32.2659 27.8C32.2659 18.52 39.2259 13.04 46.6659 13.04C54.1059 13.04 61.1059 18.52 61.1059 27.8C61.1059 37.12 54.1059 42.6 46.6659 42.6C39.2259 42.6 32.2659 37.12 32.2659 27.8ZM85.635 18.16H76.395V42H71.595V18.16H62.395V13.64H85.635V18.16Z" fill="white"/>
<path d="M27.2 42V43H28.2V42H27.2ZM22.2 42L21.3622 42.546L21.6581 43H22.2V42ZM8.2 20.52L9.03777 19.974L7.2 17.1543V20.52H8.2ZM8.2 42V43H9.2V42H8.2ZM3.4 42H2.4V43H3.4V42ZM3.4 13.64V12.64H2.4V13.64H3.4ZM9.52 13.64L10.3622 13.1008L10.0672 12.64H9.52V13.64ZM22.4 33.76L21.5578 34.2991L23.4 37.1769V33.76H22.4ZM22.4 13.64V12.64H21.4V13.64H22.4ZM27.2 13.64H28.2V12.64H27.2V13.64ZM27.2 41H22.2V43H27.2V41ZM23.0378 41.454L9.03777 19.974L7.36223 21.066L21.3622 42.546L23.0378 41.454ZM7.2 20.52V42H9.2V20.52H7.2ZM8.2 41H3.4V43H8.2V41ZM4.4 42V13.64H2.4V42H4.4ZM3.4 14.64H9.52V12.64H3.4V14.64ZM8.67779 14.1791L21.5578 34.2991L23.2422 33.2208L10.3622 13.1008L8.67779 14.1791ZM23.4 33.76V13.64H21.4V33.76H23.4ZM22.4 14.64H27.2V12.64H22.4V14.64ZM26.2 13.64V42H28.2V13.64H26.2ZM36.1859 27.8C36.1859 31.4638 37.4573 34.2938 39.4482 36.2062C41.4267 38.1067 44.0527 39.04 46.6659 39.04V37.04C44.5192 37.04 42.4051 36.2733 40.8337 34.7638C39.2745 33.2662 38.1859 30.9762 38.1859 27.8H36.1859ZM46.6659 39.04C49.2972 39.04 51.9332 38.108 53.9177 36.2072C55.9145 34.2945 57.1859 31.4639 57.1859 27.8H55.1859C55.1859 30.9761 54.0974 33.2655 52.5342 34.7628C50.9586 36.272 48.8347 37.04 46.6659 37.04V39.04ZM57.1859 27.8C57.1859 24.1361 55.9145 21.3055 53.9177 19.3928C51.9332 17.492 49.2972 16.56 46.6659 16.56V18.56C48.8347 18.56 50.9586 19.328 52.5342 20.8372C54.0974 22.3345 55.1859 24.6239 55.1859 27.8H57.1859ZM46.6659 16.56C44.0527 16.56 41.4267 17.4933 39.4482 19.3938C37.4573 21.3062 36.1859 24.1362 36.1859 27.8H38.1859C38.1859 24.6238 39.2745 22.3338 40.8337 20.8362C42.4051 19.3267 44.5192 18.56 46.6659 18.56V16.56ZM33.2659 27.8C33.2659 19.1223 39.7268 14.04 46.6659 14.04V12.04C38.7251 12.04 31.2659 17.9176 31.2659 27.8H33.2659ZM46.6659 14.04C53.6087 14.04 60.1059 19.1258 60.1059 27.8H62.1059C62.1059 17.9142 54.6032 12.04 46.6659 12.04V14.04ZM60.1059 27.8C60.1059 36.516 53.6068 41.6 46.6659 41.6V43.6C54.6051 43.6 62.1059 37.724 62.1059 27.8H60.1059ZM46.6659 41.6C39.7287 41.6 33.2659 36.5195 33.2659 27.8H31.2659C31.2659 37.7205 38.7232 43.6 46.6659 43.6V41.6ZM85.635 18.16V19.16H86.635V18.16H85.635ZM76.395 18.16V17.16H75.395V18.16H76.395ZM76.395 42V43H77.395V42H76.395ZM71.595 42H70.595V43H71.595V42ZM71.595 18.16H72.595V17.16H71.595V18.16ZM62.395 18.16H61.395V19.16H62.395V18.16ZM62.395 13.64V12.64H61.395V13.64H62.395ZM85.635 13.64H86.635V12.64H85.635V13.64ZM85.635 17.16H76.395V19.16H85.635V17.16ZM75.395 18.16V42H77.395V18.16H75.395ZM76.395 41H71.595V43H76.395V41ZM72.595 42V18.16H70.595V42H72.595ZM71.595 17.16H62.395V19.16H71.595V17.16ZM63.395 18.16V13.64H61.395V18.16H63.395ZM62.395 14.64H85.635V12.64H62.395V14.64ZM84.635 13.64V18.16H86.635V13.64H84.635Z" fill="white" mask="url(#path-4-outside-1_258_468)"/>
<mask id="path-6-outside-2_258_468" maskUnits="userSpaceOnUse" x="164" y="12" width="27" height="31" fill="black">
<rect fill="white" x="164" y="12" width="27" height="31"/>
<path d="M189.2 42V13.64H184.4V33.76L171.52 13.64H165.4V42H170.2V20.52L184.2 42H189.2Z"/>
</mask>
<path d="M189.2 42V13.64H184.4V33.76L171.52 13.64H165.4V42H170.2V20.52L184.2 42H189.2Z" fill="white"/>
<path d="M189.2 42V43H190.2V42H189.2ZM189.2 13.64H190.2V12.64H189.2V13.64ZM184.4 13.64V12.64H183.4V13.64H184.4ZM184.4 33.76L183.558 34.2991L185.4 37.1769V33.76H184.4ZM171.52 13.64L172.362 13.1008L172.067 12.64H171.52V13.64ZM165.4 13.64V12.64H164.4V13.64H165.4ZM165.4 42H164.4V43H165.4V42ZM170.2 42V43H171.2V42H170.2ZM170.2 20.52L171.038 19.974L169.2 17.1543V20.52H170.2ZM184.2 42L183.362 42.546L183.658 43H184.2V42ZM190.2 42V13.64H188.2V42H190.2ZM189.2 12.64H184.4V14.64H189.2V12.64ZM183.4 13.64V33.76H185.4V13.64H183.4ZM185.242 33.2208L172.362 13.1008L170.678 14.1791L183.558 34.2991L185.242 33.2208ZM171.52 12.64H165.4V14.64H171.52V12.64ZM164.4 13.64V42H166.4V13.64H164.4ZM165.4 43H170.2V41H165.4V43ZM171.2 42V20.52H169.2V42H171.2ZM169.362 21.066L183.362 42.546L185.038 41.454L171.038 19.974L169.362 21.066ZM184.2 43H189.2V41H184.2V43Z" fill="white" mask="url(#path-6-outside-2_258_468)"/>
</svg>
